<?xml version="1.0" encoding="UTF-8" standalone="no"?>
<svg
   xmlns:dc="http://purl.org/dc/elements/1.1/"
   xmlns:cc="http://creativecommons.org/ns#"
   xmlns:rdf="http://www.w3.org/1999/02/22-rdf-syntax-ns#"
   xmlns:svg="http://www.w3.org/2000/svg"
   xmlns="http://www.w3.org/2000/svg"
   xmlns:sodipodi="http://sodipodi.sourceforge.net/DTD/sodipodi-0.dtd"
   xmlns:inkscape="http://www.inkscape.org/namespaces/inkscape"
   inkscape:export-ydpi="327.33093"
   inkscape:export-xdpi="327.33093"
   inkscape:export-filename="H:\Furry\Character\AeroNib\Logo\AeroNib Logo White 500.png"
   sodipodi:docname="AeroNib Logo Master.svg"
   inkscape:version="1.0 (4035a4fb49, 2020-05-01)"
   id="svg4637"
   version="1.1"
   viewBox="0 0 38.733032 21.494455"
   height="81.238884"
   width="146.39256">
  <defs
     id="defs4631" />
  <sodipodi:namedview
     inkscape:document-rotation="0"
     inkscape:window-maximized="1"
     inkscape:window-y="32"
     inkscape:window-x="-8"
     inkscape:window-height="987"
     inkscape:window-width="1680"
     units="px"
     fit-margin-bottom="0"
     fit-margin-right="0"
     fit-margin-left="0"
     fit-margin-top="0"
     showgrid="false"
     inkscape:current-layer="layer1"
     inkscape:document-units="px"
     inkscape:cy="34.70945"
     inkscape:cx="78.028618"
     inkscape:zoom="5.8067047"
     inkscape:pageshadow="2"
     inkscape:pageopacity="0.0"
     borderopacity="1.0"
     bordercolor="#666666"
     pagecolor="#ffffff"
     id="base" />
  <metadata
     id="metadata4634">
    <rdf:RDF>
      <cc:Work
         rdf:about="">
        <dc:format>image/svg+xml</dc:format>
        <dc:type
           rdf:resource="http://purl.org/dc/dcmitype/StillImage" />
        <dc:title />
      </cc:Work>
    </rdf:RDF>
  </metadata>
  <g
     transform="translate(-93.082916,-155.53055)"
     id="layer1"
     inkscape:groupmode="layer"
     inkscape:label="Layer 1">
    <path
       inkscape:export-ydpi="327.33099"
       inkscape:export-xdpi="327.33099"
       sodipodi:nodetypes="sccsccscccccccc"
       inkscape:connector-curvature="0"
       id="path5320-4-3-8-7-0-3-9"
       d="m 112.44763,155.53055 c -3.6096,0 -6.6965,2.29551 -7.87808,5.50199 h 1.92082 c 1.06975,-2.20913 3.33,-3.72639 5.95726,-3.72639 2.62725,0 4.88802,1.51726 5.95777,3.72639 h 1.92081 c -1.18157,-3.20648 -4.26899,-5.50199 -7.87858,-5.50199 z m -7.48327,12.1822 c 0.69506,1.36585 1.75296,2.51786 3.04529,3.32796 -0.23366,-1.20848 -0.57887,-2.55227 -0.99528,-3.32796 z m 12.91859,0 c -0.41629,0.77545 -0.76162,2.11872 -0.99529,3.32693 1.29175,-0.81005 2.34897,-1.96163 3.04375,-3.32693 z"
       style="color:#000000;font-style:normal;font-variant:normal;font-weight:normal;font-stretch:normal;font-size:medium;line-height:normal;font-family:sans-serif;font-variant-ligatures:normal;font-variant-position:normal;font-variant-caps:normal;font-variant-numeric:normal;font-variant-alternates:normal;font-feature-settings:normal;text-indent:0;text-align:start;text-decoration:none;text-decoration-line:none;text-decoration-style:solid;text-decoration-color:#000000;letter-spacing:normal;word-spacing:normal;text-transform:none;writing-mode:lr-tb;direction:ltr;text-orientation:mixed;dominant-baseline:auto;baseline-shift:baseline;text-anchor:start;white-space:normal;shape-padding:0;clip-rule:nonzero;display:inline;overflow:visible;visibility:visible;opacity:1;isolation:auto;mix-blend-mode:normal;color-interpolation:sRGB;color-interpolation-filters:linearRGB;solid-color:#000000;solid-opacity:1;vector-effect:none;fill:#2e2d2e;fill-opacity:1;fill-rule:nonzero;stroke:none;stroke-width:1.77581418;stroke-linecap:butt;stroke-linejoin:round;stroke-miterlimit:4;stroke-dasharray:none;stroke-dashoffset:0;stroke-opacity:1;paint-order:normal;color-rendering:auto;image-rendering:auto;shape-rendering:auto;text-rendering:auto;enable-background:accumulate" />
    <path
       inkscape:export-ydpi="327.33099"
       inkscape:export-xdpi="327.33099"
       inkscape:connector-curvature="0"
       id="path5296-7-5-4-7-1-6"
       d="m 93.082916,161.53225 c 0.0201,0.14933 -0.005,0.30102 0.25579,0.62322 0.36533,0.45164 1.10802,0.93741 2.72283,0.93741 h 13.575924 c 0.26595,-0.49131 0.53115,-1.01297 0.7891,-1.56063 z m 21.387324,0 c 0.25795,0.54766 0.52315,1.06932 0.7891,1.56063 h 13.57592 c 1.61481,0 2.3575,-0.48577 2.72283,-0.93741 0.26071,-0.3223 0.23776,-0.47396 0.25786,-0.62322 z m -17.566884,2.06034 c 0.0201,0.14932 -0.005,0.3005 0.25579,0.6227 0.36533,0.45164 1.10802,0.93741 2.72283,0.93741 h 8.548324 c 0.29121,-0.45971 0.6068,-0.98139 0.93276,-1.56011 z m 18.630384,0 c 0.32596,0.57872 0.64155,1.1004 0.93276,1.56011 h 8.54832 c 1.61481,0 2.3575,-0.48577 2.72283,-0.93741 0.26071,-0.3223 0.23776,-0.47343 0.25786,-0.6227 z m -15.29829,2.05982 c 0.0201,0.14933 -0.005,0.301 0.2558,0.62322 0.36533,0.45163 1.10802,0.93741 2.72283,0.93741 h 3.79667 l 0.0439,-0.0563 c 0,0 0.44055,-0.5772 1.0511,-1.5043 z m 16.55558,0 c 0.61055,0.9271 1.0511,1.5043 1.0511,1.5043 l 0.0439,0.0563 h 3.7977 c 1.61481,0 2.35543,-0.48578 2.72076,-0.93741 0.26072,-0.32231 0.23725,-0.47395 0.25736,-0.62322 z"
       style="display:inline;fill:#2e2d2e;fill-opacity:1;stroke:none;stroke-width:0.5;stroke-linecap:butt;stroke-linejoin:miter;stroke-miterlimit:4;stroke-dasharray:none;stroke-opacity:1;paint-order:normal" />
    <path
       sodipodi:nodetypes="cccccccccccccccccccscsccccsccccccsccccccscccsscsccscccsccccccccccccccccccccccscscscccccccccccscscscsccccccccscssccsccsscccsss"
       inkscape:export-ydpi="327.33099"
       inkscape:export-xdpi="327.33099"
       id="path5149-0-7-0-5"
       d="m 112.4484,157.46301 c -9e-5,2.6e-4 8e-5,7.9e-4 0,0.001 h 5.3e-4 c -9e-5,-2.7e-4 -5.3e-4,-8e-4 -5.3e-4,-0.001 z m 0.12402,0.46922 v 8.27753 c 0.23739,0.0572 0.4048,0.26947 0.40515,0.51366 0,0.29225 -0.23692,0.52917 -0.52917,0.52917 -0.29225,0 -0.52917,-0.23692 -0.52917,-0.52917 4.2e-4,-0.24354 0.16701,-0.45535 0.40359,-0.51314 v -8.27237 c -1.41499,5.09531 -4.87463,9.52552 -4.87463,9.52552 1.03125,1.90624 1.45986,6.17998 1.45986,6.17998 h 7.0807 c 0,0 0.42861,-4.27374 1.45986,-6.17998 0,0 -3.46218,-4.43351 -4.87619,-9.5312 z m -1.88153,12.70413 0.22169,0.0145 c 0.0266,0.0363 0.047,0.0919 0.0615,0.16692 0.0387,0.18388 0.0584,0.65688 0.0584,1.41903 0,0.29519 0.0251,0.50328 0.076,0.62426 0.0194,0.046 0.039,0.0692 0.0584,0.0692 0.0193,0 0.0786,-0.0245 0.17777,-0.0729 l 0.0424,-0.0196 c -0.0192,-0.0755 -0.0305,-0.15848 -0.0305,-0.25219 -1e-5,-0.30244 0.0909,-0.54099 0.27233,-0.7152 0.18389,-0.17659 0.39198,-0.2651 0.62425,-0.2651 0.14276,0 0.25998,0.0352 0.35192,0.10542 0.0919,0.0702 0.13798,0.16463 0.13798,0.28319 -1e-5,0.11614 -0.0305,0.21424 -0.0909,0.29404 -0.0581,0.0798 -0.12925,0.1415 -0.21394,0.185 -0.17179,0.0847 -0.32905,0.13788 -0.47181,0.15968 l -0.0868,0.0109 c 0.0169,0.22743 0.10968,0.34107 0.27905,0.34107 0.0581,0 0.12019,-0.0144 0.18552,-0.0434 0.0653,-0.0291 0.11563,-0.0578 0.15193,-0.0868 l 0.0548,-0.0439 0.0868,0.11627 c -0.0194,0.0266 -0.0577,0.0618 -0.11575,0.10542 -0.0581,0.0435 -0.11249,0.0794 -0.1633,0.10852 -0.14033,0.0774 -0.29401,0.11627 -0.46096,0.11627 -0.16695,0 -0.29906,-0.0592 -0.39584,-0.17776 -0.023,-0.0282 -0.0429,-0.0596 -0.0605,-0.093 -0.0862,0.0797 -0.18065,0.1453 -0.28525,0.1943 -0.1113,0.0508 -0.21415,0.0765 -0.30851,0.0765 -0.24438,0 -0.3669,-0.19012 -0.3669,-0.56999 v -0.28681 c -0.0629,-0.0147 -0.15805,-0.0217 -0.28629,-0.0217 -0.12824,0 -0.26873,0.0125 -0.42116,0.0367 -0.12098,0.28066 -0.21424,0.53068 -0.27957,0.75086 -0.0169,0.0532 -0.0558,0.0801 -0.11627,0.0801 -0.0581,0 -0.12446,-0.0329 -0.19947,-0.0982 0.0726,-0.21292 0.22625,-0.555 0.46095,-1.02681 0.23469,-0.47423 0.38717,-0.82881 0.45734,-1.0635 0.01,-0.0387 0.0145,-0.0656 0.0145,-0.0801 0,-0.0363 -0.0269,-0.0919 -0.0801,-0.16691 l -0.0289,-0.0398 0.007,-0.047 c 0.20566,-0.058 0.43343,-0.0873 0.68264,-0.0873 z m -0.2465,0.34882 c -0.0194,0 -0.0337,0.002 -0.0434,0.007 -0.0677,0.1863 -0.13226,0.34477 -0.19275,0.47542 -0.0581,0.12824 -0.12207,0.26633 -0.19224,0.41393 l -0.12712,0.27182 0.59893,5.3e-4 0.003,-0.42117 c 0,-0.36744 -0.0151,-0.61648 -0.0465,-0.74723 z m 4.74699,0.59479 c 0.19115,0 0.28681,0.18054 0.28681,0.54106 0.0992,-0.005 0.19965,-0.0184 0.30127,-0.0403 l 0.0579,-0.0145 0.0217,0.14159 c -0.0799,0.0339 -0.18748,0.0643 -0.32297,0.0909 l -0.0724,0.0145 c -0.046,0.25405 -0.13924,0.47531 -0.27957,0.66404 -0.14034,0.1863 -0.32036,0.27957 -0.54054,0.27957 -0.16695,0 -0.29786,-0.058 -0.39222,-0.17415 -0.0944,-0.11856 -0.1416,-0.28301 -0.1416,-0.49351 0,-0.26857 0.0717,-0.49942 0.21446,-0.69298 0.14517,-0.19357 0.35012,-0.29042 0.59893,-0.29042 0.0651,0 0.13023,0.007 0.13023,0.007 0.0411,-0.0218 0.0872,-0.0326 0.13797,-0.0326 z m -1.20457,0.0258 c 0.13065,0 0.19585,0.11363 0.19585,0.34107 -0.0121,0.0145 -0.0289,0.0337 -0.0506,0.0579 -0.0193,0.0218 -0.0606,0.0534 -0.12351,0.0946 -0.0605,0.0411 -0.11969,0.0668 -0.17777,0.0765 -0.002,0 -0.0228,-0.0328 -0.0615,-0.0982 -0.0387,-0.0653 -0.068,-0.0982 -0.0873,-0.0982 -0.0605,0.0218 -0.1137,0.0583 -0.15967,0.10904 -0.1113,0.50084 -0.16692,0.82495 -0.16692,0.97255 0,0.0532 0.001,0.0908 0.004,0.11265 -0.0847,0.0339 -0.25273,0.0506 -0.50436,0.0506 h -0.0253 c -0.005,-0.0193 -0.007,-0.063 -0.007,-0.13074 0,-0.0702 0.0323,-0.25618 0.0977,-0.55862 0.0653,-0.30245 0.0982,-0.47528 0.0982,-0.51884 0,-0.075 -0.0341,-0.15749 -0.10181,-0.24701 l -0.0326,-0.0434 0.004,-0.0475 c 0.13066,-0.0363 0.33994,-0.0543 0.62787,-0.0543 0.029,0.0629 0.0434,0.15141 0.0434,0.2651 0.0266,-0.0435 0.0822,-0.10154 0.16692,-0.17415 0.0847,-0.0726 0.17195,-0.10903 0.26148,-0.10903 z m 0.90327,0.18529 c -0.0647,0.0313 -0.1173,0.12961 -0.17053,0.27233 -0.0532,0.14276 -0.0796,0.30602 -0.0796,0.4899 0,0.26131 0.0664,0.3917 0.19947,0.3917 0.10162,0 0.19249,-0.0652 0.27234,-0.19585 0.0823,-0.13066 0.13908,-0.26824 0.17053,-0.41341 -0.25889,0 -0.38861,-0.0969 -0.38861,-0.29042 0,-0.0774 0.0161,-0.15033 0.0475,-0.21808 l 0.0181,-0.0362 c -0.0219,-0.0154 -0.0511,-0.009 -0.0692,3e-5 z m -2.72848,0.003 c -0.0919,0 -0.16314,0.0784 -0.21394,0.23564 -0.0484,0.15485 -0.0718,0.30014 -0.0718,0.43564 0.12339,-0.0218 0.22041,-0.0739 0.293,-0.15607 0.0726,-0.0823 0.10956,-0.18871 0.10956,-0.31936 0,-0.13066 -0.0388,-0.19585 -0.11628,-0.19585 z"
       style="display:inline;opacity:1;fill:#2e2d2e;fill-opacity:1;stroke:none;stroke-width:1;stroke-linecap:butt;stroke-linejoin:miter;stroke-miterlimit:4;stroke-dasharray:none;stroke-opacity:1;paint-order:stroke fill markers"
       inkscape:connector-curvature="0" />
    <g
       inkscape:export-ydpi="327.33099"
       inkscape:export-xdpi="327.33099"
       transform="translate(55.152926,-42.982925)"
       id="text5503-3-11-4-9"
       style="font-style:normal;font-weight:normal;font-size:4.35685301px;line-height:1.25;font-family:sans-serif;letter-spacing:0px;word-spacing:0px;display:inline;fill:#2e2d2e;fill-opacity:1;stroke:none;stroke-width:0.10892133"
       aria-label="NIB">
      <path
         sodipodi:nodetypes="cccccccccccc"
         inkscape:connector-curvature="0"
         id="path6061-6"
         style="font-style:normal;font-variant:normal;font-weight:normal;font-stretch:normal;font-family:'Britannic Bold';-inkscape-font-specification:'Britannic Bold, ';fill:#2e2d2e;fill-opacity:1;stroke-width:0.10892133"
         d="m 55.895556,217.10408 v 2.90385 h -0.644593 l -1.045901,-1.58536 -0.166699,-0.25268 v 1.83804 h -0.28294 v -2.90385 h 0.533969 l 1.323224,1.98483 v -1.98483 z" />
      <path
         inkscape:connector-curvature="0"
         id="path6063-8"
         style="font-style:normal;font-variant:normal;font-weight:normal;font-stretch:normal;font-family:'Britannic Bold';-inkscape-font-specification:'Britannic Bold, ';fill:#2e2d2e;fill-opacity:1;stroke-width:0.10892133"
         d="m 57.571935,217.10408 v 2.90385 h -0.842439 v -2.90385 z" />
      <path
         inkscape:connector-curvature="0"
         id="path6065-1"
         style="font-style:normal;font-variant:normal;font-weight:normal;font-stretch:normal;font-family:'Britannic Bold';-inkscape-font-specification:'Britannic Bold, ';fill:#2e2d2e;fill-opacity:1;stroke-width:0.10892133"
         d="m 58.423603,220.00793 v -2.90385 h 1.291314 q 0.997736,0 0.997736,0.71266 0,0.50632 -0.602045,0.64885 0.725433,0.14466 0.725433,0.77011 0,0.77223 -0.976463,0.77223 z m 0.842439,-0.24039 h 0.240393 q 0.472276,0 0.472276,-0.54035 0,-0.61906 -0.487168,-0.61906 h -0.225501 z m 0,-1.39981 h 0.259539 q 0.359525,0 0.359525,-0.53184 0,-0.49142 -0.380799,-0.49142 h -0.238265 z" />
    </g>
  </g>
</svg>
